<svg width="512" height="512" viewBox="0 0 512 512" fill="none" xmlns="http://www.w3.org/2000/svg">
<path d="M0 64C0 28.6538 28.6538 0 64 0H448C483.346 0 512 28.6538 512 64V448C512 483.346 483.346 512 448 512H64C28.6538 512 0 483.346 0 448V64Z" fill="#18181B"/>
<path d="M239.379 144.437L144.849 238.967C141.602 242.214 143.902 247.765 148.493 247.765H204.235C208.504 247.765 211.965 251.226 211.965 255.495C211.965 259.764 208.504 263.225 204.235 263.225H148.493C130.128 263.225 120.931 241.021 133.917 228.035L228.447 133.505C241.433 120.519 263.637 129.716 263.637 148.081V203.961C263.637 208.23 260.176 211.691 255.907 211.691C251.637 211.691 248.176 208.23 248.176 203.961V148.081C248.176 143.49 242.625 141.191 239.379 144.437Z" fill="white"/>
<path d="M272.297 367.437L366.827 272.907C370.073 269.66 367.774 264.109 363.183 264.109L307.441 264.109C303.172 264.109 299.711 260.648 299.711 256.379C299.711 252.11 303.172 248.649 307.441 248.649L363.183 248.649C381.548 248.649 390.745 270.853 377.759 283.839L283.229 378.369C270.243 391.355 248.039 382.158 248.039 363.793L248.039 307.913C248.039 303.644 251.5 300.183 255.769 300.183C260.039 300.183 263.499 303.644 263.499 307.913L263.499 363.793C263.499 368.384 269.05 370.683 272.297 367.437Z" fill="white"/>
<rect x="248.039" y="217.729" width="15.4603" height="15.4603" rx="7.73014" fill="#F89D5D"/>
<rect x="248.039" y="279.57" width="15.4603" height="15.4603" rx="7.73014" fill="#F89D5D"/>
<rect x="248.039" y="217.729" width="15.4603" height="77.3014" rx="7.73014" fill="#F56E0F"/>
<rect x="294.42" y="248.649" width="15.4603" height="15.4603" rx="7.73014" transform="rotate(90 294.42 248.649)" fill="#F89D5D"/>
<rect x="232.579" y="248.649" width="15.4603" height="15.4603" rx="7.73014" transform="rotate(90 232.579 248.649)" fill="#F89D5D"/>
<rect x="294.42" y="248.649" width="15.4603" height="77.3014" rx="7.73014" transform="rotate(90 294.42 248.649)" fill="#F56E0F"/>
</svg>
