<svg width="195" height="96" viewBox="0 0 195 96" fill="none" xmlns="http://www.w3.org/2000/svg">
<path d="M45.9426 34.0014L34.1264 45.8177C33.7206 46.2235 34.008 46.9173 34.5819 46.9173H41.5496C42.0833 46.9173 42.5159 47.35 42.5159 47.8836C42.5159 48.4173 42.0833 48.8499 41.5496 48.8499H34.5819C32.2863 48.8499 31.1366 46.0744 32.7599 44.4512L44.5761 32.6349C46.1994 31.0117 48.9748 32.1613 48.9748 34.4569V41.4418C48.9748 41.9755 48.5422 42.4081 48.0086 42.4081C47.4749 42.4081 47.0423 41.9755 47.0423 41.4418V34.4569C47.0423 33.883 46.3484 33.5956 45.9426 34.0014Z" fill="white"/>
<path d="M50.0574 61.8763L61.8736 50.0601C62.2794 49.6543 61.992 48.9604 61.4181 48.9604L54.4503 48.9604C53.9167 48.9604 53.4841 48.5278 53.4841 47.9941C53.4841 47.4605 53.9167 47.0279 54.4503 47.0279L61.4181 47.0279C63.7137 47.0279 64.8634 49.8033 63.2401 51.4266L51.4239 63.2428C49.8006 64.8661 47.0251 63.7164 47.0251 61.4208L47.0251 54.4359C47.0251 53.9023 47.4578 53.4696 47.9914 53.4696C48.5251 53.4696 48.9577 53.9023 48.9577 54.4359L48.9577 61.4208C48.9577 61.9947 49.6516 62.2821 50.0574 61.8763Z" fill="white"/>
<rect x="47.0251" y="43.1628" width="1.93253" height="1.93253" rx="0.966267" fill="#F89D5D"/>
<rect x="47.0251" y="50.8929" width="1.93253" height="1.93253" rx="0.966267" fill="#F89D5D"/>
<rect x="47.0251" y="43.1628" width="1.93253" height="9.66267" rx="0.966267" fill="#F56E0F"/>
<rect x="52.8228" y="47.0279" width="1.93253" height="1.93253" rx="0.966267" transform="rotate(90 52.8228 47.0279)" fill="#F89D5D"/>
<rect x="45.0926" y="47.0279" width="1.93253" height="1.93253" rx="0.966267" transform="rotate(90 45.0926 47.0279)" fill="#F89D5D"/>
<rect x="52.8228" y="47.0279" width="1.93253" height="9.66267" rx="0.966267" transform="rotate(90 52.8228 47.0279)" fill="#F56E0F"/>
<path d="M97.9914 59L101.735 36.6H104.455L101.127 56.536H111.687L111.271 59H97.9914ZM114.04 59L116.792 43H119.352L116.6 59H114.04ZM118.936 39.288C118.51 39.288 118.136 39.128 117.816 38.808C117.496 38.488 117.336 38.1147 117.336 37.688C117.336 37.24 117.496 36.8667 117.816 36.568C118.136 36.248 118.51 36.088 118.936 36.088C119.384 36.088 119.758 36.248 120.056 36.568C120.376 36.8667 120.536 37.24 120.536 37.688C120.536 38.1147 120.376 38.488 120.056 38.808C119.758 39.128 119.384 39.288 118.936 39.288ZM121.349 59L124.037 43H126.437L126.085 45.944L123.909 59H121.349ZM132.581 59L133.957 50.744L136.581 50.584L135.141 59H132.581ZM133.957 50.744C134.234 49.1653 134.256 47.9707 134.021 47.16C133.786 46.328 133.381 45.7627 132.805 45.464C132.229 45.1653 131.546 45.016 130.757 45.016C129.328 45.016 128.133 45.528 127.173 46.552C126.213 47.5547 125.573 48.9627 125.253 50.776L124.005 50.68C124.304 48.9733 124.794 47.5227 125.477 46.328C126.16 45.112 127.013 44.1947 128.037 43.576C129.061 42.936 130.224 42.616 131.525 42.616C133.488 42.616 134.938 43.224 135.877 44.44C136.837 45.6347 137.104 47.4587 136.677 49.912L136.549 50.744H133.957ZM139.353 59L142.105 43H144.665L141.913 59H139.353ZM144.249 39.288C143.822 39.288 143.449 39.128 143.129 38.808C142.809 38.488 142.649 38.1147 142.649 37.688C142.649 37.24 142.809 36.8667 143.129 36.568C143.449 36.248 143.822 36.088 144.249 36.088C144.697 36.088 145.07 36.248 145.369 36.568C145.689 36.8667 145.849 37.24 145.849 37.688C145.849 38.1147 145.689 38.488 145.369 38.808C145.07 39.128 144.697 39.288 144.249 39.288ZM157.638 59L157.99 56.056L160.166 43H162.726L160.038 59H157.638ZM147.43 51.928L148.934 43H151.494L150.118 51.256L147.43 51.928ZM150.118 51.256C149.84 52.8133 149.819 54.008 150.054 54.84C150.288 55.672 150.694 56.2373 151.27 56.536C151.867 56.8347 152.55 56.984 153.318 56.984C154.747 56.984 155.942 56.4827 156.902 55.48C157.862 54.456 158.502 53.0373 158.822 51.224L160.07 51.32C159.792 53.0267 159.302 54.488 158.598 55.704C157.915 56.8987 157.062 57.816 156.038 58.456C155.035 59.0747 153.872 59.384 152.55 59.384C150.608 59.384 149.158 58.7867 148.198 57.592C147.259 56.376 146.992 54.5413 147.398 52.088L147.526 51.256H150.118ZM170.073 59.384C168.879 59.384 167.855 59.2027 167.001 58.84C166.169 58.4773 165.519 58.008 165.049 57.432C164.58 56.856 164.281 56.248 164.153 55.608L166.489 54.872C166.703 55.6187 167.129 56.2053 167.769 56.632C168.431 57.0373 169.156 57.24 169.945 57.24C170.607 57.24 171.247 57.1333 171.865 56.92C172.505 56.6853 173.028 56.3547 173.433 55.928C173.86 55.5013 174.073 54.968 174.073 54.328C174.073 53.7733 173.849 53.3253 173.401 52.984C172.953 52.6427 172.292 52.344 171.417 52.088L169.945 51.672C168.708 51.3307 167.759 50.8293 167.097 50.168C166.436 49.4853 166.105 48.7067 166.105 47.832C166.105 46.7867 166.383 45.8693 166.937 45.08C167.513 44.2907 168.303 43.6827 169.305 43.256C170.329 42.8293 171.513 42.616 172.857 42.616C174.329 42.616 175.503 42.9253 176.377 43.544C177.273 44.1627 177.839 44.9947 178.073 46.04L175.801 46.808C175.588 46.0613 175.215 45.5387 174.681 45.24C174.169 44.9413 173.433 44.792 172.473 44.792C171.428 44.792 170.532 45.0587 169.785 45.592C169.06 46.104 168.697 46.7547 168.697 47.544C168.697 47.9067 168.9 48.2693 169.305 48.632C169.711 48.9733 170.34 49.2613 171.193 49.496L172.505 49.848C173.999 50.232 175.076 50.808 175.737 51.576C176.42 52.344 176.761 53.208 176.761 54.168C176.761 55.2133 176.452 56.1307 175.833 56.92C175.215 57.688 174.404 58.296 173.401 58.744C172.399 59.1707 171.289 59.384 170.073 59.384Z" fill="white"/>
</svg>
