<svg width="512" height="512" viewBox="0 0 512 512" fill="none" xmlns="http://www.w3.org/2000/svg">
<path d="M0 128C0 57.3076 57.3076 0 128 0H384C454.692 0 512 57.3076 512 128V384C512 454.692 454.692 512 384 512H128C57.3076 512 0 454.692 0 384V128Z" fill="#F56E0F"/>
<path d="M218.05 282.778H210.707C186.967 282.778 175.097 282.778 170.038 274.95C164.978 267.125 169.799 256.221 179.441 234.413L208.427 168.852C217.193 149.024 221.576 139.11 230.079 133.555C238.583 128 249.374 128 270.96 128H304.39C330.611 128 343.722 128 348.666 136.566C353.611 145.131 347.107 156.574 334.098 179.46L316.947 209.63C310.48 221.007 307.246 226.696 307.291 231.352C307.35 237.404 310.568 242.979 315.766 246.032C319.766 248.382 326.283 248.382 339.318 248.382C355.797 248.382 364.037 248.382 368.328 251.235C373.902 254.941 376.821 261.571 375.798 268.211C375.011 273.322 369.469 279.45 358.384 291.707L269.822 389.637C252.427 408.872 243.73 418.49 237.889 415.446C232.048 412.402 234.853 399.715 240.462 374.339L251.451 324.634C255.722 305.312 257.858 295.651 252.722 289.214C247.586 282.778 237.74 282.778 218.05 282.778Z" stroke="#F56E0F" stroke-width="24" stroke-linejoin="round"/>
<path fill-rule="evenodd" clip-rule="evenodd" d="M212.717 277.444H205.374C181.634 277.444 169.764 277.444 164.704 269.616C159.645 261.791 164.466 250.887 174.107 229.079L203.094 163.518C211.86 143.69 216.243 133.776 224.746 128.221C233.249 122.666 244.041 122.666 265.627 122.666H299.057C325.278 122.666 338.388 122.666 343.332 131.232C348.278 139.797 341.774 151.24 328.764 174.126L311.614 204.296C305.147 215.673 301.913 221.362 301.958 226.018C302.017 232.07 305.235 237.645 310.433 240.698C314.433 243.048 320.95 243.048 333.985 243.048C350.464 243.048 358.704 243.048 362.995 245.901C368.569 249.607 371.488 256.237 370.465 262.877C369.678 267.988 364.136 274.116 353.051 286.373L264.489 384.303C247.094 403.538 238.396 413.156 232.556 410.112C226.715 407.068 229.52 394.381 235.129 369.005L246.118 319.3C250.388 299.978 252.524 290.317 247.388 283.88C242.252 277.444 232.407 277.444 212.717 277.444Z" stroke="#CE5D0E" stroke-width="24"/>
<path fill-rule="evenodd" clip-rule="evenodd" d="M207.383 272.112H200.04C176.3 272.112 164.431 272.112 159.371 264.284C154.311 256.459 159.132 245.555 168.774 223.747L197.76 158.186C206.526 138.358 210.91 128.444 219.413 122.889C227.916 117.334 238.708 117.334 260.293 117.334H293.724C319.944 117.334 333.055 117.334 337.999 125.9C342.944 134.465 336.44 145.908 323.431 168.794L306.28 198.964C299.813 210.341 296.58 216.03 296.624 220.686C296.684 226.738 299.901 232.313 305.1 235.366C309.1 237.716 315.616 237.716 328.652 237.716C345.13 237.716 353.37 237.716 357.661 240.569C363.236 244.275 366.154 250.905 365.132 257.545C364.344 262.656 358.802 268.784 347.717 281.041L259.156 378.971C241.76 398.206 233.063 407.824 227.222 404.78C221.382 401.736 224.187 389.049 229.796 363.673L240.784 313.968C245.055 294.646 247.191 284.985 242.055 278.548C236.919 272.112 227.074 272.112 207.383 272.112Z" stroke="#A64C0D" stroke-width="24"/>
<path fill-rule="evenodd" clip-rule="evenodd" d="M202.05 266.778H194.707C170.967 266.778 159.097 266.778 154.038 258.95C148.978 251.125 153.799 240.221 163.441 218.413L192.427 152.852C201.193 133.024 205.576 123.11 214.079 117.555C222.583 112 233.374 112 254.96 112H288.39C314.611 112 327.722 112 332.666 120.566C337.611 129.131 331.107 140.574 318.098 163.46L300.947 193.63C294.48 205.007 291.246 210.696 291.291 215.352C291.35 221.404 294.568 226.979 299.766 230.032C303.766 232.382 310.283 232.382 323.318 232.382C339.797 232.382 348.037 232.382 352.328 235.235C357.902 238.941 360.821 245.571 359.798 252.211C359.011 257.322 353.469 263.45 342.384 275.707L253.822 373.637C236.427 392.872 227.73 402.49 221.889 399.446C216.048 396.402 218.853 383.715 224.462 358.339L235.451 308.634C239.722 289.312 241.858 279.651 236.722 273.214C231.586 266.778 221.74 266.778 202.05 266.778Z" stroke="#7F3C0C" stroke-width="24"/>
<path fill-rule="evenodd" clip-rule="evenodd" d="M196.717 261.444H189.374C165.634 261.444 153.764 261.444 148.704 253.616C143.645 245.791 148.466 234.887 158.107 213.079L187.094 147.518C195.86 127.69 200.243 117.776 208.746 112.221C217.249 106.666 228.041 106.666 249.627 106.666H283.057C309.278 106.666 322.388 106.666 327.332 115.232C332.278 123.797 325.774 135.24 312.764 158.126L295.614 188.296C289.147 199.673 285.913 205.362 285.958 210.018C286.017 216.07 289.235 221.645 294.433 224.698C298.433 227.048 304.95 227.048 317.985 227.048C334.464 227.048 342.704 227.048 346.995 229.901C352.569 233.607 355.488 240.237 354.465 246.877C353.678 251.988 348.136 258.116 337.051 270.373L248.489 368.303C231.094 387.538 222.396 397.156 216.556 394.112C210.715 391.068 213.52 378.381 219.129 353.005L230.118 303.3C234.388 283.978 236.524 274.317 231.388 267.88C226.252 261.444 216.407 261.444 196.717 261.444Z" stroke="#582B0B" stroke-width="24"/>
<path fill-rule="evenodd" clip-rule="evenodd" d="M191.383 256.112H184.04C160.3 256.112 148.431 256.112 143.371 248.284C138.311 240.459 143.132 229.555 152.774 207.747L181.76 142.186C190.526 122.358 194.91 112.444 203.413 106.889C211.916 101.334 222.708 101.334 244.293 101.334H277.724C303.944 101.334 317.055 101.334 321.999 109.9C326.944 118.465 320.44 129.908 307.431 152.794L290.28 182.964C283.813 194.341 280.58 200.03 280.624 204.686C280.684 210.738 283.901 216.313 289.1 219.366C293.1 221.716 299.616 221.716 312.652 221.716C329.13 221.716 337.37 221.716 341.661 224.569C347.236 228.275 350.154 234.905 349.132 241.545C348.344 246.656 342.802 252.784 331.717 265.041L243.156 362.971C225.76 382.206 217.063 391.824 211.222 388.78C205.382 385.736 208.187 373.049 213.796 347.673L224.784 297.968C229.055 278.646 231.191 268.985 226.055 262.548C220.919 256.112 211.074 256.112 191.383 256.112Z" stroke="#301A0A" stroke-width="24"/>
<path d="M186.05 250.778H178.707C154.967 250.778 143.097 250.778 138.038 242.95C132.978 235.125 137.799 224.221 147.441 202.413L176.427 136.852C185.193 117.024 189.576 107.11 198.079 101.555C206.583 96 217.374 96 238.96 96H272.39C298.611 96 311.722 96 316.666 104.566C321.611 113.131 315.107 124.574 302.098 147.46L284.947 177.63C278.48 189.007 275.246 194.696 275.291 199.352C275.35 205.404 278.568 210.979 283.766 214.032C287.766 216.382 294.283 216.382 307.318 216.382C323.797 216.382 332.037 216.382 336.328 219.235C341.902 222.941 344.821 229.571 343.798 236.211C343.011 241.322 337.469 247.45 326.384 259.707L237.822 357.637C220.427 376.872 211.73 386.49 205.889 383.446C200.048 380.402 202.853 367.715 208.462 342.339L219.451 292.634C223.722 273.312 225.858 263.651 220.722 257.214C215.586 250.778 205.74 250.778 186.05 250.778Z" stroke="#020202" stroke-width="24" stroke-linejoin="round"/>
</svg>
